<?xml version="1.0" standalone="no"?>
<!DOCTYPE svg PUBLIC "-//W3C//DTD SVG 20010904//EN"
 "http://www.w3.org/TR/2001/REC-SVG-20010904/DTD/svg10.dtd">
<svg version="1.0" xmlns="http://www.w3.org/2000/svg"
 width="481.000000pt" height="481.000000pt" viewBox="0 0 481.000000 481.000000"
 preserveAspectRatio="xMidYMid meet">
<metadata>
Created by potrace 1.11, written by Peter Selinger 2001-2013
</metadata>
<g transform="translate(0.000000,481.000000) scale(0.100000,-0.100000)"
fill="#000000" stroke="none">
<path d="M2880 4320 l0 -460 -960 0 -960 0 0 246 0 245 -77 -63 c-189 -152
-405 -401 -532 -611 -63 -105 -169 -324 -206 -427 -32 -90 -95 -316 -95 -342
0 -17 51 -18 1415 -18 l1415 0 0 -480 0 -480 -960 0 -960 0 0 -480 0 -480 960
0 960 0 0 -450 c0 -247 3 -450 6 -450 3 0 49 11 103 25 678 172 1245 630 1559
1260 82 165 151 358 196 548 l6 27 -450 0 -450 0 0 480 0 480 450 0 c429 0
450 1 450 18 0 28 -64 256 -100 355 -47 130 -168 366 -249 490 l-72 107 -239
0 -240 0 0 243 0 242 -108 71 c-193 129 -352 209 -552 279 -86 29 -284 85
-304 85 -3 0 -6 -207 -6 -460z m970 -945 l0 -485 -485 0 -485 0 0 485 0 485
485 0 485 0 0 -485z m0 -1925 l0 -480 -485 0 -485 0 0 480 0 480 485 0 485 0
0 -480z"/>
</g>
</svg>
